<svg id="b77bdca9-d894-439d-8db6-5ea9a8b8c695" data-name="Layer 1" xmlns="http://www.w3.org/2000/svg" width="865.76" height="682.89" viewBox="0 0 865.76 682.89"><g id="bcf74e50-dece-4a6a-87dd-c76d4f7ce649" data-name="freepik--background-complete--inject-125"><rect x="21.29" y="595.27" width="823.19" height="0.41" fill="#ebebeb"/><rect x="707.46" y="621.76" width="54.53" height="0.41" fill="#ebebeb"/><rect x="552.29" y="626.24" width="14.31" height="0.41" fill="#ebebeb"/><rect x="674.22" y="606.48" width="31.59" height="0.41" fill="#ebebeb"/><rect x="107.66" y="609.25" width="71.11" height="0.41" fill="#ebebeb"/><rect x="193.43" y="609.25" width="10.42" height="0.41" fill="#ebebeb"/><rect x="237.74" y="616.19" width="154.23" height="0.41" fill="#ebebeb"/><path d="M411.48,521.84H93.58a9.4,9.4,0,0,1-9.38-9.4V65.56a9.39,9.39,0,0,1,9.38-9.31h317.9a9.4,9.4,0,0,1,9.4,9.4h0V512.44A9.4,9.4,0,0,1,411.48,521.84ZM93.58,56.57a9,9,0,0,0-9,9V512.44a9,9,0,0,0,9,9h317.9a9,9,0,0,0,9-9V65.56a9,9,0,0,0-9-9Z" fill="#ebebeb"/><path d="M767.61,521.84H449.69a9.41,9.41,0,0,1-9.4-9.4V65.56a9.41,9.41,0,0,1,9.4-9.31H767.61A9.39,9.39,0,0,1,777,65.56V512.44A9.39,9.39,0,0,1,767.61,521.84ZM449.69,56.57a9,9,0,0,0-9,9V512.44a9,9,0,0,0,9,9H767.61a9,9,0,0,0,9-9V65.56a9,9,0,0,0-9-9Z" fill="#ebebeb"/><rect x="115.77" y="134.17" width="252.52" height="461.1" fill="#ebebeb"/><rect x="152.8" y="77.8" width="178.47" height="30.59" fill="#fafafa"/><rect x="128.76" y="145.36" width="226.54" height="449.9" fill="#fff"/><path d="M344.46,346.81h-45.1a4.34,4.34,0,0,0-4.36,4.33v0h0a4.36,4.36,0,0,0,4.36,4.36h45.1a4.36,4.36,0,0,0,4.36-4.36h0A4.37,4.37,0,0,0,344.46,346.81Z" fill="#ebebeb"/><rect x="162.63" y="170.29" width="52.49" height="379.92" fill="#ebebeb"/><polygon points="215.12 224.01 162.63 250.25 162.63 314.61 215.12 288.37 215.12 224.01" fill="#f5f5f5"/><polygon points="215.12 301.5 162.63 327.75 162.63 352.39 215.12 326.15 215.12 301.5" fill="#f5f5f5"/><polygon points="215.12 435.42 162.63 461.65 162.63 486.29 215.12 460.05 215.12 435.42" fill="#f5f5f5"/><rect x="406.03" y="108.37" width="343.98" height="364.95" fill="#ebebeb"/><rect x="408.7" y="111.22" width="338.64" height="359.29" fill="#fff"/><rect x="461.69" y="283.78" width="86.99" height="110.9" transform="translate(140.67 826.48) rotate(-87.08)" fill="#f0f0f0"/><rect x="567.56" y="195.65" width="110.9" height="86.99" transform="translate(-23.56 73.98) rotate(-6.67)" fill="#f0f0f0"/><rect x="491.33" y="99.4" width="173.36" height="27.61" rx="12.23" fill="#e6e6e6"/><rect x="497.04" y="109.57" width="161.94" height="14.93" rx="7.23" fill="#fff"/><rect x="438.51" y="153.4" width="145.36" height="114.03" fill="#e6e6e6"/><path d="M458,166.91c-9.32-.31-10.31,5.16-6.67,8.47s39.08,23.16,40.3,29,3.51,14.55,7.1,7.11,10.34-5.45,12.69-11.74c1.65-4.54-15.39-4.94-20.4-8.5C476.28,180.92,463.42,167.11,458,166.91Z" fill="#fff"/><path d="M558.7,253.89c4.18,1.12,4.94-.94,1.28-4.23s-32.93-20.1-34.92-33.22c-.9-5.91-3.5-14.57-7.11-7.13s-10.32,5.46-12.68,11.75c-1.64,4.53,15.4,4.94,20.4,8.48C540.37,239.9,553.41,252.49,558.7,253.89Z" fill="#fff"/><path d="M514,211.53c3.11-3.44-1.2-8.4-7.64-5.5S505.65,220.88,514,211.53Z" fill="#fff"/><path d="M523.33,212c10.24,12.22,38.91,32.32,43,33.79s7.39,8.23-4.53.39-36.68-26.59-38.43-29.75S523.33,212,523.33,212Z" fill="#fff"/><rect x="565.41" y="302.77" width="145.36" height="114.03" fill="#e6e6e6"/><path d="M652.54,319.66c-12.56-.34-6.22,30.66-3.85,48s5.91,37.86,24.83,37,23.34-13.42,19.49-30.38C687.1,348.21,663.82,319.93,652.54,319.66Z" fill="#fff"/><path d="M623.65,319.66c12.54-.34,6.2,30.66,3.85,48s-5.91,37.86-24.83,37-23.34-13.42-19.49-30.38C589.07,348.21,612.34,319.93,623.65,319.66Z" fill="#fff"/><path d="M651.09,344.61a3.63,3.63,0,0,1-1.73-.45c-.61-.34-14.81-8.54-14.81-28.71a3.55,3.55,0,0,1,7.09,0c0,15.89,10.75,22.28,11.21,22.54a3.53,3.53,0,0,1-1.76,6.58Z" fill="#fff"/><path d="M625.1,344.61a3.55,3.55,0,0,1-1.77-6.59c.51-.29,11.22-6.68,11.22-22.54a3.55,3.55,0,0,1,7.09,0c0,20.17-14.21,28.37-14.82,28.72A3.55,3.55,0,0,1,625.1,344.61Z" fill="#fff"/><path d="M665.68,385.78a9.07,9.07,0,1,0,9.09-9h0A9.07,9.07,0,0,0,665.68,385.78Z" fill="#f5f5f5"/><path d="M617.05,350.45c-1.54,4.78-.84,9.25,1.54,10s5.55-2.49,7.08-7.25.84-9.25-1.55-10S618.58,345.69,617.05,350.45Z" fill="#f5f5f5"/></g><polygon points="773.88 392.22 811.71 169.9 654.14 169.9 608.02 388.99 773.88 392.22" fill="#d1d3d4"/><rect x="484.36" y="355.77" width="82.84" height="52.85" fill="#a7a9ac"/><path d="M501.9,335.94h47.76a17.54,17.54,0,0,1,17.54,17.54v2.28a0,0,0,0,1,0,0H484.36a0,0,0,0,1,0,0v-2.28a17.54,17.54,0,0,1,17.54-17.54Z" fill="#d1d3d4"/><rect x="455.66" y="417.84" width="297.92" height="173.96" fill="#d1d3d4"/><rect x="647.66" y="575.86" width="21.14" height="17.91" fill="#f9b499"/><rect x="578.51" y="579.8" width="23.65" height="18.27" fill="#f9b499"/><rect x="436.25" y="408.62" width="336.74" height="15.13" rx="6.69" fill="#bcbec0"/><path d="M570.11,580.86s23.26,3.87,35.85,0l9.52-114.25L639.72,578s26.29,5.42,37.91-5.76L654.87,378.43s-63.29-.61-77.66,1.86l-10,11.93Z" fill="#0071f2"/><path d="M570.11,580.86s23.26,3.87,35.85,0l9.52-114.25L639.72,578s26.29,5.42,37.91-5.76L654.87,378.43s-63.29-.61-77.66,1.86l-10,11.93Z" opacity="0.2"/><polygon points="609.93 529.57 593.84 395.2 615.48 466.62 609.93 529.57" opacity="0.2"/><path d="M645.87,605.24s-8.6,8.6-2.51,13.26H671.3s4.3-3.59-2.5-13.26V588H647.66Z" fill="#0071f2"/><path d="M569.19,603.27l9.32-14.33s14.69,2.33,23.64,0c0,0,4.66,20.24,0,26H557.73S547,605.6,569.19,603.27Z" fill="#0071f2"/><path d="M441.39,64.36a10.24,10.24,0,0,0-8.2-4.23l-41.8-.39A10.24,10.24,0,0,0,383,64l-12.4,17.45,83.07-.25Zm-29.91,8.41a4.61,4.61,0,1,1,4.6-4.6A4.6,4.6,0,0,1,411.48,72.77Z" fill="#0071f2"/><circle cx="408.53" cy="359.48" r="8.34" fill="#2166bf"/><circle cx="411.03" cy="378.43" r="6.9" fill="#2166bf"/><circle cx="404.13" cy="463.74" r="8.3" fill="#2166bf"/><rect x="72.42" y="520.53" width="265.76" height="98.43" rx="30.32" fill="#bcbec0"/><path d="M107.62,525.08h211a0,0,0,0,1,0,0V591.8a0,0,0,0,1,0,0H132.11a24.49,24.49,0,0,1-24.49-24.49V525.08A0,0,0,0,1,107.62,525.08Z" opacity="0.2"/><path d="M130.15,327.19s-76.1-1-76.1,101.73c0,0,3.14,80.36,80.21,110.21,0,0,47.22,18.94,98.88,12.63,0,0,67.16-12.42,71.75,15,0,0,6.25,34.1,30.39,19l7.13-7.84V472L219.94,449.53l10-44.72S205.67,327.63,130.15,327.19Z" fill="#d1d3d4"/><path d="M243.72,466.61a59.17,59.17,0,0,1,5.2-6.66,60.46,60.46,0,0,1,7.36-6.91s61.88-17.59,87.15,7.21c0,0,20.43,22.22,14,71.78l-29.28-2.46Z" fill="#2f2e41"/><path d="M243.72,466.61a59.17,59.17,0,0,1,5.2-6.66,60.46,60.46,0,0,1,7.36-6.91s61.88-17.59,87.15,7.21c0,0,20.43,22.22,14,71.78l-29.28-2.46Z" opacity="0.2"/><path d="M377.61,477.22c-19.21,0-34.8-16-35-16.19l-.07-.08c-28.65-36.64-51.18-26.21-51.4-26.1l-1-2c1-.48,24.38-11.32,54.13,26.69,1.07,1.08,24.44,24.34,48.23,11.69a36.78,36.78,0,0,0,17.63-22.33c3.26-11.22,6.06-31.48.95-64.26-.07-.26-8.19-34.63-.46-63.65l2.18.59c-7.58,28.45.41,62.28.49,62.62,5.2,33.28,2.33,53.89-1,65.33a39,39,0,0,1-18.74,23.69A33.52,33.52,0,0,1,377.61,477.22Z" fill="#0071f2"/><path d="M377.49,476.57c-19,0-34.57-16.21-34.76-16.42-15.21-19.44-28.67-25.56-37.28-27.28-9.31-1.86-15.12.9-15.18.93l-.25-.51c.24-.12,6-2.86,15.49-1,8.72,1.72,22.33,7.89,37.64,27.47.23.24,24.61,25.62,49.41,12.43,8.65-4.61,15.8-13.6,18.67-23.49,3-10.5,5.55-30.22.2-64.53-.07-.32-7.66-34.2,0-63l.55.15c-7.65,28.67-.09,62.41,0,62.75,5.37,34.44,2.84,54.24-.22,64.8-2.9,10-10.16,19.15-18.94,23.82A32.25,32.25,0,0,1,377.49,476.57Z" fill="#2f2e41"/><path d="M137.28,441s-27.72-64.48,0-81.54c0,0,12.63-11.68,40.75,39.21Z" opacity="0.2"/><path d="M256.28,453c-21.73,17.54-41.95,67.49-41.95,67.49-57.2-30.12-80.07-117.06-80.07-117.06,6.47-30.89,24.12-35.85,24.12-35.85s14.52,17.52,25.56,16.79a5.67,5.67,0,0,0,5.39-5.47c.13-3.81-1.49-10.06-10.46-17.42,13-.38,23.64,6.1,23.64,6.1,9.67,18.61,28.22,71.7,28.22,71.7,11.06-.39,12.21,7.61,12.21,7.61C247.51,452.66,256.28,453,256.28,453Z" fill="#0071f2"/><path d="M153.81,369.89s19.52,20.83,33.37,18.85a7.34,7.34,0,0,0,6.35-6.12c.52-3.94-1.22-10.5-10.27-21-.7-.07-1.45-.11-2.23-.13s-1.48,0-2.16,0c7.36,6.38,10.41,11.52,10.37,17a6,6,0,0,1-6.18,5.89c-4.69-.19-12.67-3.36-24.68-16.78a20.28,20.28,0,0,0-2.29,1A21,21,0,0,0,153.81,369.89Z" fill="#fff"/><path d="M202.51,367.62S229.16,386,248.85,409.2a3.92,3.92,0,0,1,.8,3.53c-1.29,5-5.86,17.94-19.7,24.36C230,437.09,215.62,396.35,202.51,367.62Z" fill="#0071f2"/><path d="M202.51,367.62S229.16,386,248.85,409.2a3.92,3.92,0,0,1,.8,3.53c-1.29,5-5.86,17.94-19.7,24.36C230,437.09,215.62,396.35,202.51,367.62Z" opacity="0.2"/><path d="M230,437.09l.78,2.23s9.42-1.06,12.21,7.61c0,0,5,7.13,13.34,6.11,0,0,17.4-5.22,45.82-5.87,0,0,25.42.6,36.83,9.86a2.88,2.88,0,0,0,3,.4c4.71-2.07,17.14-8.28,12.93-14.39a5.52,5.52,0,0,0-3.91-2.24c-5.62-.72-21.81-3.17-17.52-7.19,0,0,13.24,3.23,11.62-4.2l-12-3.23a28.38,28.38,0,0,0-20.41,6.45,7.94,7.94,0,0,1-4.81,1.81c-4.18.09-12,.05-16.75-1.31,0,0-20.35-2.91-27.61-1.21l-15.57-14.08S243.2,431.22,230,437.09Z" fill="#f9b499"/><path d="M277.8,443.06s1.67-8.54,6-10.81a59.5,59.5,0,0,1,6,.67c1.36.23,2.65.49,3.86.78a30.06,30.06,0,0,0-1.91,3.32,15.19,15.19,0,0,0-1.9,6Z" fill="#fff"/><circle cx="411.03" cy="378.43" r="3.27" fill="#2f2e41"/><circle cx="404.13" cy="463.74" r="3.27" fill="#2f2e41"/><path d="M214.33,520.53s12.78,8.28,59.11,5.38c0,0,1.47,4.83,12.32,3.87l82.85,62.74,17.46-22.84s-41.51-74.33-82.7-88.17c0,0-30.82-12.09-59.65-14.9C243.72,466.61,229.87,483,214.33,520.53Z" fill="#2f2e41"/><path d="M395.39,614.79s-8.72-18.95-24.27-25.55l13-17,12.74,17.47,8.3-.58s-3.13,8.12,2.17,12.76Z" fill="#f9b499"/><path d="M330.83,600.55a52.9,52.9,0,0,0,3.8-33.77q8.87,6.74,17.75,13.45L354,592.52s-8,2.87-6.36,10.29Z" fill="#f9b499"/><path d="M379.13,305.83h67.11a0,0,0,0,1,0,0v11.61a3.81,3.81,0,0,1-3.81,3.81H382.94a3.81,3.81,0,0,1-3.81-3.81V305.83A0,0,0,0,1,379.13,305.83Z" fill="#0071f2"/><path d="M379.13,305.83h67.11a0,0,0,0,1,0,0v11.61a3.81,3.81,0,0,1-3.81,3.81H382.94a3.81,3.81,0,0,1-3.81-3.81V305.83A0,0,0,0,1,379.13,305.83Z" fill="#fff" opacity="0.2"/><path d="M337.46,77.9H487.92a10.5,10.5,0,0,1,10.5,10.5v178A39.47,39.47,0,0,1,459,305.83H366.43A39.47,39.47,0,0,1,327,266.36V88.4A10.5,10.5,0,0,1,337.46,77.9Z" fill="#0071f2"/><rect x="338.58" y="86.81" width="146.28" height="7.27" rx="3.21" opacity="0.2"/><polygon points="766.7 381.79 804.53 159.47 646.96 159.47 599.5 375.25 766.7 381.79" fill="#bcbec0"/><line x1="649.22" y1="212.6" x2="776.74" y2="212.6" fill="none" stroke="#fff" stroke-miterlimit="10"/><line x1="645.47" y1="232.43" x2="772.99" y2="232.43" fill="none" stroke="#fff" stroke-miterlimit="10"/><line x1="641.18" y1="254.45" x2="768.7" y2="254.45" fill="none" stroke="#fff" stroke-miterlimit="10"/><line x1="637.43" y1="274.27" x2="764.95" y2="274.27" fill="none" stroke="#fff" stroke-miterlimit="10"/><line x1="632.7" y1="294.1" x2="760.22" y2="294.1" fill="none" stroke="#fff" stroke-miterlimit="10"/><line x1="628.95" y1="313.92" x2="756.47" y2="313.92" fill="none" stroke="#fff" stroke-miterlimit="10"/><line x1="624.67" y1="335.94" x2="752.19" y2="335.94" fill="none" stroke="#fff" stroke-miterlimit="10"/><line x1="620.91" y1="355.77" x2="748.43" y2="355.77" fill="none" stroke="#fff" stroke-miterlimit="10"/><rect x="458.05" y="381.79" width="52.63" height="26.83" fill="#d1d3d4"/><rect x="458.05" y="375.25" width="52.63" height="10.08" fill="#939598"/><path d="M494.06,367.82s-8.47-7.43-14.29,0c0,0-16.46-2.65-16.95,7.43h45.53S508.11,365.24,494.06,367.82Z" fill="#e6e7e8"/><polygon points="549.28 376.68 549.28 389.61 538.71 389.61 538.71 400.18 525.78 400.18 525.78 389.61 515.21 389.61 515.21 376.68 525.78 376.68 525.78 366.12 538.71 366.12 538.71 376.68 549.28 376.68" fill="#fff"/><path d="M556.56,228.14c-.07-.15-.26-.1-.29.07-.8,5.22-.8,28.34,8,65.89,0,0,11,68.3,12.92,86.19l27.41-1.66s-19.74-103.07-22-157.49c0,0-1.32,9.27-13.68,14.45,0,0-4.75,1.67-7.54-2.25C561.41,233.34,557.88,231.08,556.56,228.14Z" fill="#e6e7e8"/><path d="M579.47,218.23l-.27-2.82s32.48,2.16,45.73,16.93a13.39,13.39,0,0,1,3.28,7c2.33,15.71,12.92,84.56,22.62,106.47l14.86,54.33s-50.7,27.31-54.9,16l-14.2-78.68s-16.27-86.43-13.94-116.14A4,4,0,0,0,579.47,218.23Z" fill="#0071f2"/><path d="M579.47,218.23l-.27-2.82s32.48,2.16,45.73,16.93a13.39,13.39,0,0,1,3.28,7c2.33,15.71,12.92,84.56,22.62,106.47l14.86,54.33s-50.7,27.31-54.9,16l-14.2-78.68s-16.27-86.43-13.94-116.14A4,4,0,0,0,579.47,218.23Z" fill="#fff" opacity="0.7"/><path d="M617,355.77s26-5.07,33.08-11.66l.73,1.74,11.59,42.38s-31.67,19.58-34.37,7Z" fill="#fff" opacity="0.2"/><path d="M506.51,347.09s29.69,20.75,45.72,4.05c0,0-8.53-52.07-13.67-70.08,0,0-12.15-20.34-5.21-37.38,0,0-12,8.65-12,49.09v21.15l-13-8S515.77,333.51,506.51,347.09Z" fill="#0071f2"/><path d="M506.51,347.09s29.69,20.75,45.72,4.05c0,0-8.53-52.07-13.67-70.08,0,0-12.15-20.34-5.21-37.38,0,0-12,8.65-12,49.09v21.15l-13-8S515.77,333.51,506.51,347.09Z" fill="#fff" opacity="0.7"/><path d="M506.51,347.09s-7.41-5.68-6.79-25.83c0,0,2.71-19,8.63-15.34C508.35,305.92,516.54,332.5,506.51,347.09Z" fill="#0071f2"/><path d="M506.51,347.09s-7.41-5.68-6.79-25.83c0,0,2.71-19,8.63-15.34C508.35,305.92,516.54,332.5,506.51,347.09Z" fill="#fff" opacity="0.9"/><path d="M215.62,476.13s39.26,0,40.66,10.19c0,0,4.32,20,2.14,28.22,0,0-7.5,1.21-11.62-14.28,0,0-8,1.35-18.54-7.08l-12.64.29Z" fill="#f9b499"/><path d="M137.66,399.34c7.34,1.3,24.81,8.65,34.39,48.1a25.78,25.78,0,0,0,5,9.93l.44.57a24.24,24.24,0,0,0,11,8.38c8.54,3.17,21.78,7.35,27.13,5.12v24.92s-45.83,12.71-64-10.89a12.22,12.22,0,0,1-1-1.56c-3.52-6.39-25.28-47.75-17.17-81.85A3.63,3.63,0,0,1,137.66,399.34Z" fill="#0071f2"/><path d="M137.66,399.34c7.34,1.3,24.81,8.65,34.39,48.1a25.78,25.78,0,0,0,5,9.93l.44.57a24.24,24.24,0,0,0,11,8.38c8.54,3.17,21.78,7.35,27.13,5.12v24.92s-45.83,12.71-64-10.89a12.22,12.22,0,0,1-1-1.56c-3.52-6.39-25.28-47.75-17.17-81.85A3.63,3.63,0,0,1,137.66,399.34Z" opacity="0.2"/><path d="M185.49,384.18c-11.18,2.67-27.11-16.56-27.11-16.56V350.77c5.35,0,3-9.47,3-9.47l17.51,5.36v14.86c10,8.24,10.87,15.09,10.35,18.67A4.83,4.83,0,0,1,185.49,384.18Z" fill="#f9b499"/><path d="M178.87,361.52v-10a38.33,38.33,0,0,1-12.32-6.07S167.7,352.22,178.87,361.52Z" fill="#f7a48b"/><ellipse cx="173.79" cy="327.19" rx="18.39" ry="28.98" transform="translate(-172.33 195.06) rotate(-41.13)" fill="#f9b499"/><path d="M162.79,335.73l-1.44-17.68s22.48-3.43,19.05-17.16c0,0,.76-8.77-16.78-8,0,0-19.07-8.39-23.64,15.26,0,0-20.75,20-2,36.53a16,16,0,0,0,4.2,2.63c5.31,2.32,19.16,7.28,20,.11Z" fill="#2f2e41"/><ellipse cx="161.35" cy="341.29" rx="5.5" ry="6.69" transform="translate(-194.07 214.06) rotate(-45)" fill="#f9b499"/><path d="M395.39,614.79s3,10.11,13.24,8.1a12.46,12.46,0,0,0,7.08-4.33l28.23-33.93a3.13,3.13,0,0,0-.13-4.18c-2.55-2.67-8.21-5.46-18,4.6,0,0-16.29.31-20.58,4,0,0-3.32,8.23,2.17,12.76Z" fill="#0071f2"/><path d="M347.63,602.81l-16.8-2.26s-9,16.47,1.94,18.41h52s5-12-13.64-13.24c0,0-11.08-17.67-17.13-13.2C354,592.52,345.69,596.68,347.63,602.81Z" fill="#0071f2"/><circle cx="408.53" cy="359.48" r="4.4" fill="#2f2e41"/><path d="M443.64,295.18H383.19c-24.63,0-44.61-21.63-44.61-46.27V136a11.87,11.87,0,0,1,11.87-11.87H476.38A11.86,11.86,0,0,1,488.25,136V250.57C487.51,275.32,468.06,293.85,443.64,295.18Z" fill="#fff" opacity="0.2"/><path d="M423.52,169.86s57.46-15.24,64.73,1.23C488.25,171.09,481.57,184.63,423.52,169.86Z" fill="#2f2e41"/><path d="M423.52,169.86s57.46-15.24,64.73,1.23C488.25,171.09,481.57,184.63,423.52,169.86Z" opacity="0.2"/><rect x="345.85" y="131.37" width="52.31" height="18.41" rx="8.14" fill="#fff"/><path d="M364.54,141.86l-1.11,3.36H362l3.63-10.67h1.66l3.64,10.67h-1.47l-1.14-3.36Zm3.5-1.07L367,137.72c-.24-.7-.39-1.33-.55-1.95h0c-.16.63-.34,1.28-.54,1.93l-1.05,3.09Z" fill="#0071f2"/><path d="M373.76,134.69a13.93,13.93,0,0,1,2.52-.22,4.41,4.41,0,0,1,2.93.78,2.23,2.23,0,0,1,.88,1.88,2.53,2.53,0,0,1-1.8,2.34v0a2.75,2.75,0,0,1,2.2,2.67,2.87,2.87,0,0,1-.9,2.14,5.38,5.38,0,0,1-3.69,1,16.62,16.62,0,0,1-2.14-.13Zm1.38,4.37h1.25c1.46,0,2.31-.76,2.31-1.79,0-1.25-.95-1.74-2.34-1.74a5.57,5.57,0,0,0-1.22.1Zm0,5.11a6.87,6.87,0,0,0,1.15.07c1.43,0,2.74-.52,2.74-2.07s-1.25-2.06-2.75-2.06h-1.14Z" fill="#0071f2"/><path d="M338.58,162.86s16-18.89,74.1,4.36c0,0,62.49,16.95,75.57,3.87v79.48s.88,41.31-44.61,44.61H383.19s-41.7,1-44.61-44.61Z" fill="#2f2e41"/><path d="M577.76,200.58l1.71,17.65s7.1,1.3,0,10c0,0-10.66,13.24-18.08,5.49,0,0-9.95-6.2-3.39-11V216.3l17.73-17Z" fill="#f9b499"/><path d="M580.45,423.74l-3.24-43.45s-3.67-38.35-9.06-66.37c0,0-13.6-67.82-11.88-85.71a4.49,4.49,0,0,1,1.73-5.45v-3.48s-42.14,17.4-22.12,61.78c0,0,12.94,41.4,17.21,76.48A69.79,69.79,0,0,1,553.3,372C552,387.41,551.17,427.65,580.45,423.74Z" fill="#0071f2"/><path d="M580.45,423.74l-3.24-43.45s-3.67-38.35-9.06-66.37c0,0-13.6-67.82-11.88-85.71a4.49,4.49,0,0,1,1.73-5.45v-3.48s-42.14,17.4-22.12,61.78c0,0,12.94,41.4,17.21,76.48A69.79,69.79,0,0,1,553.3,372C552,387.41,551.17,427.65,580.45,423.74Z" fill="#fff" opacity="0.7"/><path d="M604.62,305.83s-1.65,10.53,3.55,30a126.16,126.16,0,0,0,6.1,15.35S620.51,339.23,604.62,305.83Z" fill="#0071f2"/><path d="M604.62,305.83s-1.65,10.53,3.55,30a126.16,126.16,0,0,0,6.1,15.35S620.51,339.23,604.62,305.83Z" fill="#fff" opacity="0.9"/><path d="M556.27,278.69l42.51-8.06s16.71,36.28,16,65.16l-38.94,5.43S564.3,294.32,556.27,278.69Z" fill="#2f2e41"/><path d="M604.62,305.83l16.29-3s-21.29-65.89,7.3-63.46c0,0,22.78,22.17,23.27,74.54,0,0,.59,22-37.21,37.22C614.27,351.14,619.76,337.41,604.62,305.83Z" fill="#0071f2"/><path d="M604.62,305.83l16.29-3s-21.29-65.89,7.3-63.46c0,0,22.78,22.17,23.27,74.54,0,0,.59,22-37.21,37.22C614.27,351.14,619.76,337.41,604.62,305.83Z" fill="#fff" opacity="0.8"/><path d="M611.61,323.22H604a4.79,4.79,0,0,0-2.83.92c-4.81,3.51-22.32,15.61-28.15,10.34,0,0-1.61-3,0-5,0,0-3.84-.73-3-5.31,0,0-2.91-1.25-.94-5.17a10.41,10.41,0,0,1-3.4-5.46,2.92,2.92,0,0,1,1.89-3.2l16.72-6.4s-1.29-5.37-9.2-8.74c0,0-3.87-2.73-.16-4.34,0,0,13.88-2.75,21.15,13.88l8.52,1.06S609.75,316.48,611.61,323.22Z" fill="#f9b499"/><line x1="569.1" y1="319.03" x2="582.63" y2="313.92" fill="none" stroke="#f7a48b" stroke-miterlimit="10"/><line x1="570.04" y1="324.2" x2="582.63" y2="319.03" fill="none" stroke="#f7a48b" stroke-miterlimit="10"/><line x1="573.01" y1="329.51" x2="584.88" y2="324.2" fill="none" stroke="#f7a48b" stroke-miterlimit="10"/><path d="M511.36,332l-23.11-23.34s-25.92-6.21-19-34.14a4.07,4.07,0,0,1,3.6-3.21c2.21-.11,5.21,1.64,7.83,9.76,0,0,5.49,5.63,7.59,3.05,0,0-5-10.95,0-9.84,0,0,3.07,7.9,6.62,11.13,0,0,5.43,7.1,4.82,13.88l8.66,6.64a72.86,72.86,0,0,1,2.49,12A77.45,77.45,0,0,1,511.36,332Z" fill="#f9b499"/><path d="M558,218v4.77s13.3-1.13,13.74-16.92Z" fill="#f7a48b"/><ellipse cx="558" cy="190.33" rx="28.38" ry="18.4" transform="translate(261.89 700.13) rotate(-78.68)" fill="#f9b499"/><ellipse cx="578.1" cy="196.64" rx="5.09" ry="7.39" fill="#f9b499"/><path d="M583,194.69s-2.28-9.75-8.78-2.82c0,0-8.23-3.35-16.22-26.11,0,0-12.23-2.84-18,21,0,0-4.23-25.31,13.2-27.24,0,0,7.46-5.93,16.48-5.8a19.23,19.23,0,0,1,13.55,5.8,65.37,65.37,0,0,1,5.63,10.43C592.49,178.62,594.57,190.64,583,194.69Z" fill="#2f2e41"/><path d="M588.81,169.9a65.37,65.37,0,0,0-5.63-10.43,19.23,19.23,0,0,0-13.55-5.8h0s2.9-9.69,16.72-1.21C586.34,152.45,606.54,165.08,588.81,169.9Z" fill="#2f2e41"/><path d="M588.81,169.9a65.37,65.37,0,0,0-5.63-10.43,19.23,19.23,0,0,0-13.55-5.8h0s2.9-9.69,16.72-1.21C586.34,152.45,606.54,165.08,588.81,169.9Z" opacity="0.2"/><g id="e662f7ae-a35b-49c3-a74d-769fcc836ba8" data-name="freepik--Flower--inject-125"><path d="M92.55,550.56h0a.72.72,0,0,1-.72-.72h0c.24-27.63-8.62-132.75-30-164a.74.74,0,0,1,.18-1,.73.73,0,0,1,1,.18c21.87,32,30.41,136.09,30.21,164.79A.72.72,0,0,1,92.55,550.56Z" fill="#0071f2"/><path d="M100.3,542.92H84.8c-12.27,33.57-7,105.77,0,105.77h15.5C107.3,648.69,112.57,576.49,100.3,542.92Z" fill="#2f2e41"/><path d="M68,399.59c3.29,2.32,3.69,4.94,2.35,6.8s-3.87,2.47-7.21.15-5.81-9.21-5.81-9.21S64.68,397.27,68,399.59Z" fill="#0071f2"/><path d="M87.78,430.87c-1.11,3.92-3.41,5.09-5.67,4.45s-3.6-2.85-2.5-6.75,6.82-8.48,6.82-8.48S88.88,427,87.78,430.87Z" fill="#0071f2"/><path d="M82.39,456.93c2.78,2.95,2.62,5.54.92,7.13s-4.28,1.65-7.08-1.3-3.82-10.21-3.82-10.21S79.59,454,82.39,456.93Z" fill="#0071f2"/><path d="M98.31,503.72c-1.64,3.74-4,4.61-6.19,3.69s-3.19-3.29-1.64-7,7.93-7.56,7.93-7.56S99.91,500,98.31,503.72Z" fill="#0071f2"/><path d="M56.49,377.66c-2.68-2.53,3.3-9.88,7.43-9.7,2.14.14,1.65,3.16,1.78,5.68s-.3,4.84-3.64,5.47S57.78,378.93,56.49,377.66Z" fill="#0071f2"/><path d="M56.49,377.66c-2.68-2.53,3.3-9.88,7.43-9.7,2.14.14,1.65,3.16,1.78,5.68s-.3,4.84-3.64,5.47S57.78,378.93,56.49,377.66Z" opacity="0.2" style="isolation:isolate"/><path d="M63,374.6c-.25-3.69-9.88-3.76-12.2-.46-1.27,1.74,2.77,2.12,4,4.34s3.17,3.51,5.79,1.34S63.1,376.36,63,374.6Z" fill="#0071f2"/><path d="M65.94,377.41c-.32-4.94-12.92-4.94-16.1-.61-1.64,2.29,1.8,4.38,4.28,6.59s5.17,3.77,8.63.91S66.09,379.74,65.94,377.41Z" fill="#407bff"/><path d="M65.94,377.41c-.32-4.94-12.92-4.94-16.1-.61-1.64,2.29,1.8,4.38,4.28,6.59s5.17,3.77,8.63.91S66.09,379.74,65.94,377.41Z" opacity="0.2" style="isolation:isolate"/><path d="M57.38,381.45c-3.54-3.3,4.42-13.17,9.88-12.8,2.82.17-.16,4.6,1.06,7.69s.9,6.19-3.51,7S59.08,383,57.38,381.45Z" fill="#407bff"/><path d="M65.94,377.41c-.32-4.94-12.92-4.94-16.1-.61-1.64,2.29,1.8,4.38,4.28,6.59s5.17,3.77,8.63.91S66.09,379.74,65.94,377.41Z" fill="#0071f2"/><path d="M65.94,377.41c-.32-4.94-12.92-4.94-16.1-.61-1.64,2.29,1.8,4.38,4.28,6.59s5.17,3.77,8.63.91S66.09,379.74,65.94,377.41Z" opacity="0.2" style="isolation:isolate"/><path d="M57.38,381.45c-3.54-3.3,4.42-13.17,9.88-12.8,2.82.17-.16,4.6,1.06,7.69s.9,6.19-3.51,7S59.08,383,57.38,381.45Z" fill="#0071f2"/><path d="M58.31,387c-4.09-3.85,5.07-15.1,11.26-14.72,3.29.2,2.56,4.79,2.7,8.63s-.45,7.34-5.52,8.23S60.23,388.81,58.31,387Z" fill="#0071f2"/><path d="M58.31,387c-4.09-3.85,5.07-15.1,11.26-14.72,3.29.2,2.56,4.79,2.7,8.63s-.45,7.34-5.52,8.23S60.23,388.81,58.31,387Z" opacity="0.2" style="isolation:isolate"/><path d="M68.13,382.39c-.36-5.6-14.81-5.72-18.52-.71-1.91,2.63,4.2,3.29,6,6.58s4.85,5.34,8.81,2S68.32,385,68.13,382.39Z" fill="#0071f2"/></g></svg>